<?xml version="1.0" encoding="UTF-8" standalone="no"?>
<svg
   width="53"
   height="53"
   viewBox="0 0 53 53"
   fill="none"
   version="1.1"
   id="svg851">
  <path
     class="account-icons-svg-path"
     d="M26.5 4.41666C22.2169 4.42479 18.0286 5.6783 14.4452 8.0245C10.8619 10.3707 8.03811 13.7083 6.31792 17.6308C4.59773 21.5533 4.05534 25.8914 4.75681 30.1167C5.45829 34.342 7.37336 38.2721 10.2688 41.4283V41.4283C12.3367 43.6699 14.8465 45.4588 17.64 46.6824C20.4336 47.906 23.4503 48.5377 26.5 48.5377C29.5498 48.5377 32.5664 47.906 35.36 46.6824C38.1535 45.4588 40.6633 43.6699 42.7313 41.4283V41.4283C45.6267 38.2721 47.5417 34.342 48.2432 30.1167C48.9447 25.8914 48.4023 21.5533 46.6821 17.6308C44.9619 13.7083 42.1382 10.3707 38.5548 8.0245C34.9714 5.6783 30.7831 4.42479 26.5 4.41666V4.41666ZM26.5 44.1667C21.9254 44.1597 17.5318 42.3785 14.2438 39.1979C15.242 36.7677 16.9402 34.6891 19.1225 33.2263C21.3048 31.7635 23.8728 30.9825 26.5 30.9825C29.1272 30.9825 31.6952 31.7635 33.8775 33.2263C36.0598 34.6891 37.758 36.7677 38.7563 39.1979C35.4682 42.3785 31.0746 44.1597 26.5 44.1667ZM22.0833 22.0833C22.0833 21.2098 22.3424 20.3559 22.8277 19.6296C23.313 18.9032 24.0028 18.3371 24.8098 18.0029C25.6169 17.6686 26.5049 17.5811 27.3617 17.7515C28.2184 17.9219 29.0054 18.3426 29.6231 18.9603C30.2407 19.578 30.6614 20.3649 30.8318 21.2217C31.0022 22.0784 30.9148 22.9665 30.5805 23.7735C30.2462 24.5805 29.6801 25.2703 28.9538 25.7556C28.2275 26.241 27.3735 26.5 26.5 26.5C25.3286 26.5 24.2052 26.0347 23.377 25.2064C22.5487 24.3781 22.0833 23.2547 22.0833 22.0833ZM41.7596 35.3333C39.7865 31.9585 36.7498 29.3333 33.125 27.8692C34.2494 26.5942 34.9821 25.0219 35.235 23.3408C35.488 21.6598 35.2505 19.9415 34.551 18.3921C33.8516 16.8427 32.72 15.528 31.2919 14.6058C29.8638 13.6836 28.2 13.1931 26.5 13.1931C24.8001 13.1931 23.1362 13.6836 21.7081 14.6058C20.28 15.528 19.1484 16.8427 18.449 18.3921C17.7495 19.9415 17.5121 21.6598 17.765 23.3408C18.018 25.0219 18.7506 26.5942 19.875 27.8692C16.2502 29.3333 13.2135 31.9585 11.2404 35.3333C9.66797 32.6548 8.83714 29.6059 8.83334 26.5C8.83334 21.8145 10.6946 17.3209 14.0078 14.0078C17.3209 10.6946 21.8145 8.83332 26.5 8.83332C31.1855 8.83332 35.6791 10.6946 38.9922 14.0078C42.3054 17.3209 44.1667 21.8145 44.1667 26.5C44.1629 29.6059 43.332 32.6548 41.7596 35.3333V35.3333Z"
     fill="#1A1A1A"
     id="path849" />
  <path
     style="fill:#ececec;stroke-width:0.120455"
     d="m 24.956178,26.121308 c -1.187392,-0.501006 -1.771132,-1.037617 -2.371399,-2.179945 -0.287793,-0.547679 -0.323424,-0.747446 -0.324578,-1.81976 -0.0012,-1.071395 0.03528,-1.279023 0.329589,-1.878306 1.383702,-2.817543 5.102773,-3.358369 7.134785,-1.037537 0.766541,0.875494 1.075032,1.710875 1.076768,2.915843 0.0017,1.180026 -0.345031,2.030298 -1.201176,2.945586 -0.812465,0.868591 -1.661315,1.242218 -2.944671,1.296117 -0.867674,0.03644 -1.126905,-4.69e-4 -1.699318,-0.241998 z"
     id="path1420" />
  <path
     style="fill:#ececec;stroke-width:0.120455"
     d="m 24.728223,44.029075 c -3.648355,-0.461851 -7.286466,-2.059582 -9.812545,-4.309326 l -0.597772,-0.53238 0.296636,-0.639785 c 1.035919,-2.234274 3.26475,-4.595677 5.536408,-5.865716 1.712573,-0.957466 3.550816,-1.459341 5.675063,-1.549397 1.932559,-0.08193 3.165405,0.06901 4.724086,0.578359 3.079903,1.006465 5.542026,2.985411 7.281304,5.852392 0.916138,1.510136 0.917686,1.535617 0.136034,2.239722 -2.087306,1.880228 -5.247951,3.403062 -8.300578,3.999311 -0.991254,0.193615 -4.080244,0.335484 -4.938636,0.22682 z"
     id="path1422" />
  <path
     style="fill:#65a15a;stroke-width:0.120455;fill-opacity:1"
     d="m 23.403223,43.749715 c -0.563125,-0.119591 -1.315127,-0.304557 -1.671115,-0.411038 -0.355988,-0.106479 -0.694767,-0.164234 -0.752841,-0.128342 -0.05807,0.03589 -0.10559,0.01206 -0.10559,-0.05296 0,-0.06502 -0.203267,-0.184764 -0.451704,-0.266093 -0.248438,-0.08133 -0.844688,-0.32637 -1.325,-0.544534 -0.480313,-0.218164 -0.874126,-0.359093 -0.87514,-0.313175 -0.001,0.04592 -0.04167,0.02598 -0.09034,-0.0443 -0.08228,-0.118809 -2.152088,-1.498346 -2.248068,-1.498346 -0.02383,0 -0.37253,-0.304228 -0.77489,-0.676061 -0.72927,-0.673942 -0.730999,-0.677152 -0.551707,-1.023864 0.09892,-0.191291 0.149224,-0.347802 0.111785,-0.347802 -0.03744,0 -0.01117,-0.06776 0.05838,-0.150568 0.06955,-0.08281 0.404513,-0.584205 0.744367,-1.114205 0.352564,-0.549821 1.115245,-1.455043 1.776025,-2.107955 1.090768,-1.07778 2.009406,-1.902422 2.131498,-1.913402 0.0299,-0.0027 0.393332,-0.194451 0.807628,-0.426139 0.414296,-0.231687 1.131376,-0.56096 1.593511,-0.731716 0.462136,-0.170756 0.921553,-0.34307 1.020928,-0.38292 0.09937,-0.03985 0.261989,-0.08451 0.361364,-0.09924 0.09938,-0.01473 0.62992,-0.09505 1.17899,-0.178481 0.635748,-0.0966 1.66378,-0.130206 2.830681,-0.09253 1.523434,0.04919 2.013131,0.113363 2.904467,0.380609 3.403778,1.020545 5.91833,2.994097 7.796525,6.119121 0.322885,0.537231 0.587064,1.084031 0.587064,1.21511 0,0.20734 -0.763718,1.172633 -0.997418,1.260676 -0.161593,0.06088 -1.216375,0.812924 -1.433692,1.022205 -0.12039,0.115937 -0.24621,0.210361 -0.279602,0.20983 -0.09549,-0.0015 -2.28114,1.106477 -2.348379,1.190488 -0.03312,0.04139 -0.114432,0.07599 -0.180682,0.07689 -0.101177,0.0014 -2.127222,0.650072 -2.710227,0.867756 -0.236296,0.08823 -0.320904,0.100521 -1.789467,0.259954 -1.843901,0.200181 -4.107084,0.158061 -5.317351,-0.09896 z"
     id="path1424" />
  <path
     style="fill:#65a15a;fill-opacity:1;stroke-width:0.120455"
     d="m 24.654105,25.920715 c -0.879067,-0.434683 -1.642832,-1.224838 -2.055759,-2.12679 -0.268831,-0.587203 -0.297009,-0.785134 -0.260231,-1.827915 0.03269,-0.926928 0.09991,-1.288543 0.324172,-1.743962 0.3802,-0.772089 1.196153,-1.563919 2.037095,-1.976868 0.610943,-0.300007 0.824416,-0.339486 1.835659,-0.339486 0.940153,0 1.251773,0.04952 1.746591,0.27757 0.33125,0.152664 0.604071,0.261073 0.60627,0.240909 0.0022,-0.02016 0.293227,0.282716 0.64673,0.673066 0.938856,1.036718 1.147515,1.573503 1.15222,2.964137 0.0046,1.372997 -0.215829,1.954343 -1.099429,2.898983 -0.896545,0.958479 -1.540591,1.234829 -2.992155,1.283889 -1.138717,0.03849 -1.244801,0.02081 -1.941163,-0.323533 z"
     id="path1426" />
  <path
     style="fill:#784421;fill-opacity:1;stroke-width:0.120455"
     d="m 24.607768,25.787495 c -0.873286,-0.481092 -1.348298,-0.95681 -1.798154,-1.800826 -0.34147,-0.640664 -0.369937,-0.785903 -0.368851,-1.881927 0.0014,-1.459164 0.261029,-2.108714 1.18717,-2.970632 0.931534,-0.866938 1.666604,-1.165578 2.872476,-1.167012 1.748734,-0.0021 2.867415,0.664953 3.735287,2.227232 0.306311,0.551399 0.334572,0.709107 0.334572,1.867046 0,1.538601 -0.148224,1.903431 -1.206618,2.969901 -0.890891,0.897688 -1.514803,1.126641 -3.061267,1.123371 -0.920763,-0.0019 -1.10359,-0.04156 -1.694615,-0.367153 z"
     id="path1428" />
</svg>
