<?xml version="1.0" encoding="UTF-8" standalone="no"?>
<svg
   width="44.08279"
   height="44.12104"
   viewBox="0 0 44.08279 44.12104"
   fill="none"
   version="1.1"
   id="svg22">

  <path
     class="account-icons-svg-path"
     d="m 22.041381,0 c -4.2831,0.00813 -8.4714,1.26164 -12.0547996,3.60784 -3.5833,2.3462 -6.40709,5.6838 -8.12728,9.6063 -1.72019004,3.9225 -2.26258004,8.2606 -1.56111004,12.4859 0.70148,4.2253 2.61655004,8.1554 5.51199004,11.3116 v 0 c 2.0679,2.2416 4.5776996,4.0305 7.3711996,5.2541 2.7936,1.2236 5.8103,1.8553 8.86,1.8553 3.0498,0 6.0664,-0.6317 8.86,-1.8553 2.7935,-1.2236 5.3033,-3.0125 7.3713,-5.2541 v 0 c 2.8954,-3.1562 4.8104,-7.0863 5.5119,-11.3116 0.7015,-4.2253 0.1591,-8.5634 -1.5611,-12.4859 -1.7202,-3.9225 -4.5439,-7.2601 -8.1273,-9.6063 C 30.512781,1.26164 26.324481,0.00813 22.041381,0 Z m 0,39.75004 c -4.5746,-0.007 -8.9682,-1.7882 -12.2561996,-4.9688 0.9981996,-2.4302 2.6963996,-4.5088 4.8786996,-5.9716 2.1823,-1.4628 4.7503,-2.2438 7.3775,-2.2438 2.6272,0 5.1952,0.781 7.3775,2.2438 2.1823,1.4628 3.8805,3.5414 4.8788,5.9716 -3.2881,3.1806 -7.6817,4.9618 -12.2563,4.9688 z m -4.4167,-22.0834 c 0,-0.8735 0.2591,-1.7274 0.7444,-2.4537 0.4853,-0.7264 1.1751,-1.2925 1.9821,-1.6267 0.8071,-0.3343 1.6951,-0.4218 2.5519,-0.2514 0.8567,0.1704 1.6437,0.5911 2.2614,1.2088 0.6176,0.6177 1.0383,1.4046 1.2087,2.2614 0.1704,0.8567 0.083,1.7448 -0.2513,2.5518 -0.3343,0.807 -0.9004,1.4968 -1.6267,1.9821 -0.7263,0.4854 -1.5803,0.7444 -2.4538,0.7444 -1.1714,0 -2.2948,-0.4653 -3.123,-1.2936 -0.8283,-0.8283 -1.2937,-1.9517 -1.2937,-3.1231 z m 19.6763,13.25 c -1.9731,-3.3748 -5.0098,-6 -8.6346,-7.4641 1.1244,-1.275 1.8571,-2.8473 2.11,-4.5284 0.253,-1.681 0.0155,-3.3993 -0.684,-4.9487 -0.6994,-1.5494 -1.831,-2.8641 -3.2591,-3.7863 -1.4281,-0.9222 -3.0919,-1.4127 -4.7919,-1.4127 -1.6999,0 -3.3638,0.4905 -4.7919,1.4127 -1.4281,0.9222 -2.5597,2.2369 -3.2591,3.7863 -0.6995,1.5494 -0.9369,3.2677 -0.684,4.9487 0.253,1.6811 0.9856,3.2534 2.11,4.5284 -3.6248,1.4641 -6.6614996,4.0893 -8.6345996,7.4641 -1.57243,-2.6785 -2.40326,-5.7274 -2.40706,-8.8333 0,-4.6855 1.86126,-9.1791 5.17446,-12.4922 3.3130996,-3.3132 7.8066996,-5.17448 12.4921996,-5.17448 4.6855,0 9.1791,1.86128 12.4922,5.17448 3.3132,3.3131 5.1745,7.8067 5.1745,12.4922 -0.0038,3.1059 -0.8347,6.1548 -2.4071,8.8333 z"
     fill="#1a1a1a"
     id="path20" />
  <path
     class="account-icon-head"
     style="fill:#FFFFFF;stroke-width:0.130381"
     d="m 20.253888,21.487852 c -0.847291,-0.423396 -1.661175,-1.232129 -2.061479,-2.048433 -0.158339,-0.322886 -0.254693,-0.871295 -0.287415,-1.635857 -0.046,-1.074872 -0.02258,-1.204257 0.357918,-1.97716 0.483328,-0.981779 1.069852,-1.530858 2.200364,-2.059889 0.755377,-0.353483 0.92093,-0.383196 1.775121,-0.318594 1.143209,0.08646 1.965149,0.447376 2.745054,1.205356 0.872034,0.847521 1.141705,1.485473 1.211596,2.866229 0.05728,1.131607 0.0438,1.203361 -0.378158,2.013093 -1.08637,2.084727 -3.562375,2.95498 -5.563001,1.955255 z"
     id="path873" />
  <path
     class="account-icon-body"
     style="fill:#FFFFFF;fill-opacity:1;stroke-width:0.130381"
     d="m 20.750798,39.602966 c -2.27591,-0.149496 -4.46428,-0.769677 -6.655972,-1.886293 -1.408988,-0.717847 -3.157634,-1.922249 -3.82105,-2.631797 L 9.9013064,34.686506 10.316488,33.86948 c 1.520314,-2.991781 4.054612,-5.244824 7.184357,-6.38704 1.658643,-0.60533 2.744961,-0.796268 4.553766,-0.800401 4.987649,-0.0114 9.531196,2.806173 11.794304,7.313945 l 0.351603,0.700343 -0.427902,0.441483 c -0.6671,0.688273 -2.54025,1.97225 -3.811126,2.612392 -2.882316,1.451825 -5.942674,2.067427 -9.210692,1.852764 z"
     id="path875" />
  <path
     style="fill:#e6e6e6;fill-opacity:1;stroke-width:0.130381"
     d="M 6.1661324,29.547179 C 1.8752126,20.513119 6.0400804,9.715698 15.305818,5.85254 c 2.233348,-0.931148 4.25263,-1.3217616 6.810605,-1.3174556 2.869295,0.00483 5.325382,0.603202 7.936143,1.9334676 4.837658,2.464941 8.114119,6.845605 9.289348,12.419956 0.166412,0.789328 0.234009,1.689787 0.234904,3.129151 0.0013,2.120497 -0.110763,2.958422 -0.653988,4.889299 -0.315835,1.122634 -1.43464,3.715867 -1.603143,3.715867 -0.04432,0 -0.452447,-0.52688 -0.906958,-1.170843 -1.546437,-2.191043 -4.175102,-4.412913 -6.56183,-5.546365 l -0.998015,-0.473954 0.618894,-0.948051 c 2.891373,-4.42914 1.278049,-10.440443 -3.440537,-12.81957 -1.165282,-0.587539 -2.070755,-0.818873 -3.520296,-0.899379 -1.707597,-0.09484 -2.882464,0.153085 -4.492519,0.948026 -2.05013,1.012221 -3.618679,2.802193 -4.403557,5.025182 -0.450539,1.276052 -0.557641,3.416667 -0.241943,4.835671 0.235928,1.060449 0.868162,2.472617 1.473664,3.291596 l 0.385583,0.521525 -1.29235,0.67864 c -2.544659,1.336254 -4.8143746,3.296254 -6.3162966,5.4544 -0.417086,0.59932 -0.800672,1.092698 -0.852415,1.096397 -0.05174,0.0037 -0.323983,-0.477315 -0.604979,-1.068921 z"
     id="path833" />
</svg>
