<?xml version="1.0" standalone="no"?>
<!DOCTYPE svg PUBLIC "-//W3C//DTD SVG 20010904//EN"
 "http://www.w3.org/TR/2001/REC-SVG-20010904/DTD/svg10.dtd">
<svg version="1.0" xmlns="http://www.w3.org/2000/svg"
 width="175.000000pt" height="175.000000pt" viewBox="0 0 175.000000 175.000000"
 preserveAspectRatio="xMidYMid meet">
<metadata>
Created by potrace 1.11, written by Peter Selinger 2001-2013
</metadata>
<g transform="translate(0.000000,175.000000) scale(0.100000,-0.100000)"
fill="#000000" stroke="none">
<path d="M883 1603 c-20 -4 -23 -11 -23 -48 0 -57 -15 -95 -37 -95 -22 0 -69
73 -65 100 2 15 -1 18 -12 14 -9 -3 -16 -11 -16 -16 0 -6 -7 -8 -15 -4 -19 7
-20 -8 -2 -23 18 -14 40 -83 35 -107 -5 -28 -35 -19 -74 22 -32 34 -33 35 -52
17 -14 -14 -16 -23 -9 -40 6 -13 16 -23 23 -23 7 0 22 -12 33 -26 16 -21 18
-30 10 -40 -14 -18 -99 -19 -99 -2 0 7 -7 5 -17 -6 -13 -14 -15 -20 -5 -23 6
-3 10 -9 7 -14 -4 -5 2 -6 11 -2 14 5 16 3 11 -11 -6 -15 -3 -17 21 -12 28 6
62 -8 49 -20 -4 -4 -19 -7 -35 -6 -21 0 -28 -4 -29 -20 -2 -22 -21 -48 -35
-48 -5 0 -6 6 -2 13 6 9 5 9 -7 0 -12 -10 -18 -10 -29 0 -10 10 -11 9 -5 -2 6
-11 3 -13 -13 -9 -12 4 -24 2 -27 -2 -3 -5 -13 -7 -23 -6 -9 2 -19 0 -22 -3
-3 -3 -14 -11 -24 -17 -11 -5 -21 -19 -22 -30 -1 -10 -5 -28 -7 -39 -2 -11 0
-26 6 -32 5 -7 6 -13 2 -13 -4 0 -1 -7 6 -17 8 -9 13 -19 12 -22 -5 -12 19
-71 28 -71 6 0 8 -4 5 -9 -3 -5 0 -11 7 -14 11 -4 13 -21 8 -70 -1 -5 -6 -5
-13 -1 -7 4 -8 3 -4 -5 4 -6 11 -9 15 -7 4 3 6 -28 4 -67 -2 -76 5 -93 45
-108 13 -5 21 -13 17 -18 -3 -5 -1 -13 5 -16 8 -5 8 -11 0 -20 -6 -8 -7 -16
-2 -19 9 -5 24 -68 26 -111 1 -11 4 -24 8 -30 3 -5 5 -27 4 -47 -1 -20 1 -35
5 -32 4 2 9 -7 11 -21 7 -33 -19 -68 -43 -62 -21 6 -53 -19 -44 -34 4 -5 1 -9
-5 -9 -6 0 -4 -8 5 -17 11 -11 34 -17 64 -17 34 -1 45 -5 43 -15 -3 -12 -1
-12 14 0 20 16 167 21 157 5 -4 -5 -1 -6 8 0 22 13 90 14 82 0 -3 -6 0 -6 8 1
16 16 33 17 23 1 -5 -7 -3 -8 7 -2 19 11 139 13 139 1 0 -6 5 -6 13 0 6 5 56
9 109 8 54 -1 102 1 107 4 9 6 14 33 12 59 0 6 -9 12 -19 12 -10 0 -24 6 -31
12 -11 11 -12 10 -6 -2 4 -8 -2 -6 -14 6 -22 20 -22 23 -7 58 8 20 12 34 7 32
-4 -3 -6 6 -3 19 2 14 7 23 11 21 3 -3 8 23 9 57 1 34 7 85 13 112 8 43 15 54
49 75 22 13 36 27 31 30 -10 6 -10 40 0 40 4 0 3 17 -2 38 -4 20 -4 38 0 40 5
2 5 18 1 37 -5 21 -3 38 4 46 8 9 8 10 -3 4 -8 -5 -3 7 11 26 14 19 32 54 39
79 7 25 17 51 23 59 8 11 8 13 -1 8 -8 -5 -10 4 -8 29 4 42 -22 74 -59 74 -13
0 -27 7 -30 16 -4 9 -11 12 -18 7 -24 -15 -48 -14 -42 2 5 12 0 14 -24 9 -21
-4 -31 -2 -35 10 -4 9 -17 16 -30 16 -14 0 -30 7 -37 15 -10 13 -4 19 41 40
30 14 59 25 66 25 7 0 10 7 7 15 -4 8 -10 12 -15 9 -5 -3 -9 -1 -9 5 0 5 -10
7 -22 4 -105 -25 -124 -5 -57 63 30 31 40 47 33 54 -8 8 -26 2 -62 -21 -80
-49 -98 -18 -48 80 10 18 15 35 13 38 -10 10 -44 -17 -72 -56 -38 -55 -61 -54
-69 4 -4 24 -4 60 0 80 3 19 5 34 3 34 -2 -1 -14 -4 -26 -6z"/>
<path d="M430 646 c0 -2 8 -10 18 -17 15 -13 16 -12 3 4 -13 16 -21 21 -21 13z"/>
</g>
</svg>
